<svg width="24" height="24" viewBox="0 0 24 24" fill="none" xmlns="http://www.w3.org/2000/svg">
<path d="M12 2.20178C17.799 2.20178 22.5 6.70692 22.5 12.2643C22.5 17.8216 17.799 22.3268 12 22.3268C6.20101 22.3268 1.5 17.8216 1.5 12.2643C1.5 6.70692 6.20101 2.20178 12 2.20178ZM6.75 6.60413C6.38906 6.60413 6.09375 6.88713 6.09375 7.23303C6.09375 13.1385 11.0878 17.9244 17.25 17.9244C17.6109 17.9244 17.9062 17.6414 17.9062 17.2955V15.1002C17.906 14.7545 17.6108 14.4713 17.25 14.4713C16.4362 14.4713 15.6422 14.3456 14.9072 14.1129C14.6776 14.0375 14.4154 14.0946 14.2383 14.2643L12.7939 15.6481C10.9369 14.7362 9.41474 13.2832 8.46973 11.5035L9.91309 10.1198C10.0968 9.94366 10.1493 9.69827 10.0771 9.47815C9.83435 8.7738 9.70312 8.01913 9.70312 7.23303C9.70312 6.88713 9.40781 6.60413 9.04688 6.60413H6.75Z" fill="black"/>
</svg>
